/* XPM */
static char *closeI_xpm[] = {
"16 32 3 1",
"0	c #4B4B4B",
"1	c #070707",
"2	c #FF6060",
"0000000000000000",
"0000000000000000",
"0011111111111100",
"0010000000000100",
"0010110000110100",
"0010111001110100",
"0010011111100100",
"0010001111000100",
"0010001111000100",
"0010011111100100",
"0010111001110100",
"0010110000110100",
"0010000000000100",
"0011111111111100",
"0000000000000000",
"0000000000000000",
"0000000000000000",
"0000000000000000",
"0011111111111100",
"0010000000000100",
"0010000000000100",
"0010022002200100",
"0010022002200100",
"0010000220000100",
"0010000220000100",
"0010022002200100",
"0010022002200100",
"0010000000000100",
"0010000000000100",
"0011111111111100",
"0000000000000000",
"0000000000000000"
};
