/* XPM */
static char *closeA_xpm[] = {
"16 32 3 1",
"0	c #3B3A3A",
"1	c #070707",
"2	c #FF6060",
"0000000000000000",
"0000000000000000",
"0011111111111100",
"0012222222222100",
"0012112222112100",
"0012111221112100",
"0012211111122100",
"0012221111222100",
"0012221111222100",
"0012211111122100",
"0012111221112100",
"0012112222112100",
"0012222222222100",
"0011111111111100",
"0000000000000000",
"0000000000000000",
"0000000000000000",
"0000000000000000",
"0011111111111100",
"0012222222222100",
"0012222222222100",
"0012211221122100",
"0012211221122100",
"0012222112222100",
"0012222112222100",
"0012211221122100",
"0012211221122100",
"0012222222222100",
"0012222222222100",
"0011111111111100",
"0000000000000000",
"0000000000000000"
};
