/* XPM */
static char *maximizeI_xpm[] = {
"16 32 3 1",
"0	c #4B4B4B",
"1	c #070707",
"2	c #28CA41",
"0000000000000000",
"0000000000000000",
"0011111111111100",
"0010000000000100",
"0010000110000100",
"0010000110000100",
"0010000110000100",
"0010111111110100",
"0010111111110100",
"0010000110000100",
"0010000110000100",
"0010000110000100",
"0010000000000100",
"0011111111111100",
"0000000000000000",
"0000000000000000",
"0000000000000000",
"0000000000000000",
"0011111111111100",
"0010000000000100",
"0010000000000100",
"0010000220000100",
"0010000220000100",
"0010022222200100",
"0010022222200100",
"0010000220000100",
"0010000220000100",
"0010000000000100",
"0010000000000100",
"0011111111111100",
"0000000000000000",
"0000000000000000"
};
