/* XPM */
static char *restoreI_xpm[] = {
"16 32 3 1",
"0	c #4B4B4B",
"1	c #070707",
"2	c #28CA41",
"0000000000000000",
"0000000000000000",
"0011111111111100",
"0012222222222100",
"0012222112222100",
"0012222112222100",
"0012222112222100",
"0012111111112100",
"0012111111112100",
"0012222112222100",
"0012222112222100",
"0012222112222100",
"0012222222222100",
"0011111111111100",
"0000000000000000",
"0000000000000000",
"0000000000000000",
"0000000000000000",
"0011111111111100",
"0012222222222100",
"0012222222222100",
"0012222112222100",
"0012222112222100",
"0012211111122100",
"0012211111122100",
"0012222112222100",
"0012222112222100",
"0012222222222100",
"0012222222222100",
"0011111111111100",
"0000000000000000",
"0000000000000000"
};
