/* XPM */
static char *desktop_xpm[] = {
"16 16 2 1",
" 	c None",
"1	c #F0F2F2",
"                ",
"                ",
" 1111      1111 ",
" 1111 1111 1111 ",
" 111        111 ",
" 11          11 ",
"                ",
"  1          1  ",
"  1          1  ",
"                ",
" 11          11 ",
" 111        111 ",
" 1111 1111 1111 ",
" 1111      1111 ",
"                ",
"                "
};
