/* XPM */
static char *expand_xpm[] = {
"8 16 2 1",
" 	c None",
"1	c #FFFFFF",
"        ",
"        ",
"        ",
"     1  ",
"    11  ",
"   111  ",
"  1111  ",
" 11111  ",
" 11111  ",
"  1111  ",
"   111  ",
"    11  ",
"     1  ",
"        ",
"        ",
"        "
};
