/* XPM */
static char *start_xpm[] = {
"18 16 2 1",
"0	c #141313",
"1	c #BFBFBF",
"000000000000000000",
"000000000000000000",
"000000000000000000",
"001100110011001100",
"001100110011001100",
"000000000000000000",
"000000000000000000",
"001100110011001100",
"001100110011001100",
"000000000000000000",
"000000000000000000",
"001100110011001100",
"001100110011001100",
"000000000000000000",
"000000000000000000",
"000000000000000000"
};
