/* XPM */
static char *windows_xpm[] = {
"16 16 2 1",
" 	c None",
"1	c #CFCFCF",
"                ",
"                ",
" 1111111111     ",
" 1111111111     ",
" 1        1     ",
" 1        1     ",
" 1   1111111111 ",
" 1   1111111111 ",
" 1   1        1 ",
" 1   1        1 ",
" 11111        1 ",
"     1        1 ",
"     1        1 ",
"     1        1 ",
"     1111111111 ",
"                "
};
